<?xml version="1.0" encoding="UTF-8"?>
<svg version="1.1" xmlns="http://www.w3.org/2000/svg" width="450" height="172">
<path d="M0 0 C148.5 0 297 0 450 0 C450 56.76 450 113.52 450 172 C301.5 172 153 172 0 172 C0 115.24 0 58.48 0 0 Z " fill="#FEFEFE" transform="translate(0,0)"/>
<path d="M0 0 C1.98 0 3.96 0 6 0 C6 9.9 6 19.8 6 30 C1 30 1 30 -0.4855957 28.62304688 C-1.07473755 27.68041992 -1.07473755 27.68041992 -1.67578125 26.71875 C-2.11083984 26.04199219 -2.54589844 25.36523438 -2.99414062 24.66796875 C-3.42919922 23.95253906 -3.86425781 23.23710938 -4.3125 22.5 C-4.76689453 21.78457031 -5.22128906 21.06914063 -5.68945312 20.33203125 C-6.80881194 18.56462259 -7.90652207 16.78353681 -9 15 C-9.33 19.95 -9.66 24.9 -10 30 C-11.98 30 -13.96 30 -16 30 C-16 20.43 -16 10.86 -16 1 C-11 1 -11 1 -9.5144043 2.37695312 C-9.12164307 3.00537109 -8.72888184 3.63378906 -8.32421875 4.28125 C-7.88916016 4.95800781 -7.45410156 5.63476562 -7.00585938 6.33203125 C-6.57080078 7.04746094 -6.13574219 7.76289062 -5.6875 8.5 C-5.23310547 9.21542969 -4.77871094 9.93085937 -4.31054688 10.66796875 C-3.19118806 12.43537741 -2.09347793 14.21646319 -1 16 C-0.67 10.72 -0.34 5.44 0 0 Z " fill="#1A1A1A" transform="translate(196,52)"/>
<path d="M0 0 C12 0 12 0 17 3 C19 5 19 5 19.3125 8.375 C18.97650041 12.27259528 18.2648968 13.04578678 16 16 C16.16874499 19.20615478 17.12073332 21.24146663 18.5625 24.125 C20 27 20 27 20 30 C17.69 30 15.38 30 13 30 C12.63648438 28.82630859 12.63648438 28.82630859 12.265625 27.62890625 C11.93046875 26.61699219 11.5953125 25.60507813 11.25 24.5625 C10.92515625 23.55316406 10.6003125 22.54382813 10.265625 21.50390625 C9.84796875 20.67761719 9.4303125 19.85132812 9 19 C7.68 18.67 6.36 18.34 5 18 C5 21.63 5 25.26 5 29 C3.35 29 1.7 29 0 29 C0 19.43 0 9.86 0 0 Z " fill="#121212" transform="translate(285,52)"/>
<path d="M0 0 C2.31 0 4.62 0 7 0 C8.48549886 3.89344821 9.96228112 7.79014634 11.4375 11.6875 C12.06881836 13.34168945 12.06881836 13.34168945 12.71289062 15.02929688 C13.11572266 16.09599609 13.51855469 17.16269531 13.93359375 18.26171875 C14.30540771 19.24100342 14.67722168 20.22028809 15.06030273 21.22924805 C15.93752473 23.81578804 16.5345167 26.31220932 17 29 C14.36 29 11.72 29 9 29 C8.505 26.525 8.505 26.525 8 24 C4.7 23.67 1.4 23.34 -2 23 C-2.33 24.98 -2.66 26.96 -3 29 C-4.98 29 -6.96 29 -9 29 C-8.41066394 24.94012934 -7.52036888 21.24802636 -6.15234375 17.3828125 C-5.79462891 16.36445312 -5.43691406 15.34609375 -5.06835938 14.296875 C-4.50858398 12.72679688 -4.50858398 12.72679688 -3.9375 11.125 C-3.37192383 9.52011719 -3.37192383 9.52011719 -2.79492188 7.8828125 C-1.86766315 5.2536232 -0.93590193 2.62612238 0 0 Z " fill="#1B1B1B" transform="translate(153,53)"/>
<path d="M0 0 C1.98 0 3.96 0 6 0 C6.01981934 0.59014893 6.03963867 1.18029785 6.06005859 1.78833008 C6.15534659 4.46350096 6.26500939 7.13789498 6.375 9.8125 C6.4059375 10.74126953 6.436875 11.67003906 6.46875 12.62695312 C6.50742188 13.51962891 6.54609375 14.41230469 6.5859375 15.33203125 C6.6173584 16.15421143 6.6487793 16.9763916 6.68115234 17.82348633 C6.88373622 20.28952937 6.88373622 20.28952937 9 23 C11.5 23.5 11.5 23.5 14 23 C16.08745045 19.86882433 16.27653996 18.93053776 16.4140625 15.33203125 C16.45273437 14.43935547 16.49140625 13.54667969 16.53125 12.62695312 C16.57765625 11.23379883 16.57765625 11.23379883 16.625 9.8125 C16.66367187 8.87212891 16.70234375 7.93175781 16.7421875 6.96289062 C16.83643187 4.6421229 16.92204025 2.32136252 17 0 C18.98 0 20.96 0 23 0 C23.11689626 3.37470504 23.18747934 6.7488843 23.25 10.125 C23.30027344 11.55199219 23.30027344 11.55199219 23.3515625 13.0078125 C23.43293103 18.86634689 23.06343603 22.42498029 19 27 C14.78241808 29.81172128 10.95155239 29.9318711 6 29 C3.13109898 26.8887997 1.58688565 24.17377131 0 21 C-0.08400529 19.40552536 -0.10727467 17.80759455 -0.09765625 16.2109375 C-0.09443359 15.26992187 -0.09121094 14.32890625 -0.08789062 13.359375 C-0.07951172 12.37453125 -0.07113281 11.3896875 -0.0625 10.375 C-0.05798828 9.38242187 -0.05347656 8.38984375 -0.04882812 7.3671875 C-0.03702145 4.9113984 -0.020554 2.45572896 0 0 Z " fill="#101010" transform="translate(248,53)"/>
<path d="M0 0 C1.65 0 3.3 0 5 0 C5 3.63 5 7.26 5 11 C5.66 11 6.32 11 7 11 C7.2475 10.29875 7.495 9.5975 7.75 8.875 C9.2254144 5.48154688 10.5752164 2.81799175 13 0 C16.75 -0.375 16.75 -0.375 20 0 C19.55527344 0.59167969 19.11054688 1.18335938 18.65234375 1.79296875 C18.08644531 2.58316406 17.52054688 3.37335937 16.9375 4.1875 C16.36902344 4.96480469 15.80054688 5.74210937 15.21484375 6.54296875 C13.79756191 8.90551533 13.79756191 8.90551533 14.125 11.41796875 C15.16931334 14.49962554 16.53869856 17.25031077 18.0625 20.125 C21 25.66823529 21 25.66823529 21 29 C19.02 29 17.04 29 15 29 C13.02 25.04 11.04 21.08 9 17 C5.82990528 18.62078662 5.82990528 18.62078662 5.48828125 21.1640625 C5.43027344 21.97617188 5.37226563 22.78828125 5.3125 23.625 C5.24675781 24.44226563 5.18101562 25.25953125 5.11328125 26.1015625 C5.07589844 26.72804688 5.03851563 27.35453125 5 28 C3.35 28 1.7 28 0 28 C0 18.76 0 9.52 0 0 Z " fill="#0D0D0D" transform="translate(216,53)"/>
<path d="M0 0 C3.375 -0.125 3.375 -0.125 7 0 C7.66 0.66 8.32 1.32 9 2 C8.63318342 4.93453261 8.13562754 5.86437246 6 8 C2.875 8.125 2.875 8.125 0 8 C0 5.36 0 2.72 0 0 Z " fill="#DFDFDF" transform="translate(290,58)"/>
<path d="M0 0 C1.65 0 3.3 0 5 0 C5.625 2.3125 5.625 2.3125 6 5 C5.01 6.485 5.01 6.485 4 8 C5.32 8.33 6.64 8.66 8 9 C8 9.99 8 10.98 8 12 C5.03 12 2.06 12 -1 12 C-0.34 10.68 0.32 9.36 1 8 C1.68960962 6.00779443 2.36079057 4.00894394 3 2 C1.68 2.33 0.36 2.66 -1 3 C-0.67 2.01 -0.34 1.02 0 0 Z " fill="#898989" transform="translate(215,112)"/>
<path d="M0 0 C1.65 0 3.3 0 5 0 C5 3.96 5 7.92 5 12 C3.35 12 1.7 12 0 12 C0 8.04 0 4.08 0 0 Z " fill="#868686" transform="translate(203,112)"/>
<path d="M0 0 C0.66 0 1.32 0 2 0 C2 2.64 2 5.28 2 8 C2.66 8.33 3.32 8.66 4 9 C3.34 9 2.68 9 2 9 C2 10.65 2 12.3 2 14 C1.34 14 0.68 14 0 14 C0 12.68 0 11.36 0 10 C-1.65 10 -3.3 10 -5 10 C-5 9.34 -5 8.68 -5 8 C-3.35 8 -1.7 8 0 8 C0 5.36 0 2.72 0 0 Z " fill="#464646" transform="translate(245,113)"/>
<path d="M0 0 C1.67542976 0.28604898 3.34385343 0.61781233 5 1 C4.979375 1.886875 4.95875 2.77375 4.9375 3.6875 C4.99286219 6.62169631 5.3305734 9.15493696 6 12 C5.01 12.33 4.02 12.66 3 13 C1.875 5.375 1.875 5.375 3 2 C1.68 1.67 0.36 1.34 -1 1 C-0.67 0.67 -0.34 0.34 0 0 Z " fill="#6A6A6A" transform="translate(229,112)"/>
<path d="M0 0 C2.12508244 3.18762365 2.5020163 5.26512223 3 9 C1.35 9 -0.3 9 -2 9 C-1.125 2.25 -1.125 2.25 0 0 Z " fill="#E0E0E0" transform="translate(156,61)"/>
<path d="M0 0 C0.33 0 0.66 0 1 0 C1 2.31 1 4.62 1 7 C-0.65 7 -2.3 7 -4 7 C-2.68 4.69 -1.36 2.38 0 0 Z " fill="#C2C2C2" transform="translate(244,114)"/>
<path d="M0 0 C1.65 0 3.3 0 5 0 C5.33 1.65 5.66 3.3 6 5 C5.01 5.495 5.01 5.495 4 6 C4 4.68 4 3.36 4 2 C2.35 2.33 0.7 2.66 -1 3 C-0.67 2.01 -0.34 1.02 0 0 Z " fill="#727272" transform="translate(215,112)"/>
</svg>
